<svg xmlns="http://www.w3.org/2000/svg" xmlns:xlink="http://www.w3.org/1999/xlink" version="1.1" x="0px" y="0px" viewBox="0 0 100 125" style="enable-background:new 0 0 100 100;" xml:space="preserve"><path d="M73.9,53.4L47.8,27.3C47,26.6,46,26.1,45,26.1l-15.8,0c-1,0-1.9,0.4-2.6,1l-0.2,0.2c-0.6,0.7-1,1.6-1,2.6l0,15.8  c0,1.1,0.4,2.1,1.2,2.8l26.1,26.1c1.6,1.6,4.1,1.6,5.6,0L73.9,59C75.4,57.5,75.4,54.9,73.9,53.4z M35.9,39.4c-2.3,0-4.1-1.9-4.1-4.1  s1.9-4.1,4.1-4.1S40,33,40,35.3S38.1,39.4,35.9,39.4z"/></svg>
