<svg xmlns="http://www.w3.org/2000/svg" xmlns:xlink="http://www.w3.org/1999/xlink" version="1.0" x="0px" y="0px" viewBox="0 0 100 125" enable-background="new 0 0 100 100" xml:space="preserve"><path fill="#000000" d="M80.367,13.438H19.633c-5.5,0-10,4.5-10,10v53.124c0,5.5,4.5,10,10,10h60.734c5.5,0,10-4.5,10-10V23.438  C90.367,17.938,85.867,13.438,80.367,13.438z M70,18.25c2.071,0,3.75,1.679,3.75,3.75s-1.679,3.75-3.75,3.75s-3.75-1.679-3.75-3.75  S67.929,18.25,70,18.25z M60,18.25c2.071,0,3.75,1.679,3.75,3.75s-1.679,3.75-3.75,3.75s-3.75-1.679-3.75-3.75  S57.929,18.25,60,18.25z M83.446,79.461H73.69h-4.17H16.672V30.539h52.849h4.17h9.756V79.461z M80,25.75  c-2.071,0-3.75-1.679-3.75-3.75s1.679-3.75,3.75-3.75s3.75,1.679,3.75,3.75S82.071,25.75,80,25.75z"/></svg>
