<svg xmlns:rdf="http://www.w3.org/1999/02/22-rdf-syntax-ns#" xmlns="http://www.w3.org/2000/svg" xmlns:cc="http://creativecommons.org/ns#" xmlns:dc="http://purl.org/dc/elements/1.1/" version="1.1" viewBox="0 0 100 125" x="0px" y="0px"><path style="baseline-shift:baseline;block-progression:tb;color:#000000;direction:ltr;text-indent:0;enable-background:accumulate;text-transform:none;" fill="#000" d="M27.5,4.9688c-7.132,0-12.969,5.9302-12.969,13.062,0,5.736,3.777,10.611,8.969,12.313v39.281c-5.192,1.716-8.969,6.67-8.969,12.406,0,7.133,5.837,12.969,12.969,12.969s13-5.836,13-12.969c0-5.736-3.808-10.69-9-12.406v-0.625c0-5.929,1.815-8.24,5.156-10.344,3.341-2.103,8.602-3.393,14.282-4.781,5.679-1.388,11.839-2.905,16.937-6.719,4.632-3.465,7.961-9.08,8.531-16.781,5.24-1.673,9.094-6.573,9.094-12.344,0-7.132-5.868-13.062-13-13.062s-12.969,5.9302-12.969,13.062c0,5.701,3.732,10.551,8.875,12.281-0.422,5.483-2.394,8.262-5.344,10.469-3.339,2.499-8.429,3.982-14,5.344-5.57,1.362-11.559,2.572-16.656,5.781-0.306,0.193-0.61,0.382-0.906,0.594v-22.156c5.192-1.702,9-6.577,9-12.313,0-7.132-5.868-13.062-13-13.062zm0,8.0312c2.809,0,5.031,2.222,5.031,5.031s-2.222,4.938-5.031,4.938-5-2.129-5-4.938,2.191-5.031,5-5.031zm45,0c2.809,0,5.031,2.222,5.031,5.031s-2.222,4.938-5.031,4.938-5-2.129-5-4.938,2.191-5.031,5-5.031zm-45,64c2.809,0,5.031,2.222,5.031,5.031s-2.222,4.938-5.031,4.938-5-2.129-5-4.938,2.191-5.031,5-5.031z"/></svg>
