<?xml version="1.0" standalone="no"?>
<!DOCTYPE svg PUBLIC "-//W3C//DTD SVG 20010904//EN"
 "http://www.w3.org/TR/2001/REC-SVG-20010904/DTD/svg10.dtd">
<svg version="1.0" xmlns="http://www.w3.org/2000/svg"
 width="1249.000000pt" height="1249.000000pt" viewBox="0 0 1249.000000 1249.000000"
 preserveAspectRatio="xMidYMid meet">
<metadata>
Created by potrace 1.11, written by Peter Selinger 2001-2013
</metadata>
<g transform="translate(0.000000,1249.000000) scale(0.100000,-0.100000)"
fill="#000000" stroke="none">
<path d="M4920 11225 c-813 -813 -1261 -1268 -1255 -1274 6 -5 385 -170 843
-366 l834 -356 51 34 c72 47 101 61 182 87 85 27 249 31 333 7 l53 -14 23 31
c30 40 1285 2003 1292 2019 3 10 -576 594 -986 994 l-105 103 -1265 -1265z"/>
<path d="M7523 11079 c-73 -108 -1253 -1959 -1253 -1966 0 -4 16 -39 35 -78
19 -38 42 -101 51 -140 9 -38 21 -81 28 -93 9 -19 184 -98 909 -408 l898 -385
29 21 c16 12 64 37 105 56 41 19 75 38 75 42 0 4 66 422 147 930 l147 923
-571 571 -570 570 -30 -43z"/>
<path d="M2693 8991 c-370 -372 -673 -679 -673 -683 0 -5 338 -505 751 -1113
l751 -1106 57 8 c77 11 217 8 266 -5 30 -9 42 -9 51 1 20 21 1406 2191 1411
2209 3 10 -10 34 -32 60 -45 53 -99 163 -120 243 -12 43 -15 94 -13 183 l3
123 -875 375 c-481 207 -882 377 -890 378 -9 2 -295 -279 -687 -673z"/>
<path d="M9016 9618 c-5 -16 -246 -1510 -246 -1525 0 -5 26 -26 58 -46 31 -19
70 -49 86 -66 17 -17 34 -31 39 -31 13 0 1178 500 1206 517 24 15 20 19 -550
589 -316 316 -577 574 -582 574 -4 0 -9 -6 -11 -12z"/>
<path d="M6261 8386 c-56 -90 -219 -206 -331 -236 -75 -20 -168 -29 -227 -21
-45 7 -58 5 -69 -8 -8 -9 -326 -504 -708 -1101 -427 -666 -691 -1089 -686
-1094 6 -6 86 23 207 75 2758 1185 3520 1514 3530 1523 6 6 13 46 15 90 l3 78
-840 359 c-462 198 -847 362 -856 364 -12 4 -24 -5 -38 -29z"/>
<path d="M9817 7911 c-356 -153 -652 -282 -658 -288 -7 -7 -6 -13 3 -20 7 -5
739 -319 1626 -697 1369 -585 1614 -686 1628 -675 13 11 -113 141 -958 986
-535 535 -977 973 -983 973 -5 -1 -302 -126 -658 -279z"/>
<path d="M882 7197 c-460 -460 -833 -839 -829 -843 8 -9 2950 -633 2984 -634
15 0 29 13 46 43 14 23 44 63 67 90 24 27 40 53 36 62 -3 8 -225 335 -494 727
-269 392 -592 863 -718 1047 -126 184 -235 337 -243 339 -8 3 -358 -341 -849
-831z"/>
<path d="M8920 7197 c-78 -74 -144 -111 -242 -136 l-73 -19 -166 -1033 -167
-1033 60 -65 c70 -74 120 -171 138 -265 11 -57 15 -64 38 -69 15 -3 436 -91
935 -196 499 -105 915 -191 925 -191 9 0 404 387 882 865 750 750 863 867 850
879 -16 14 -3088 1326 -3105 1326 -6 -1 -39 -29 -75 -63z"/>
<path d="M6280 6389 l-1875 -807 3 -73 c2 -41 5 -75 7 -78 6 -5 3016 -631
3037 -631 9 0 30 19 47 43 78 114 213 203 341 227 36 7 68 15 72 19 6 6 328
1983 328 2018 0 10 -19 35 -42 54 l-43 36 -1875 -808z"/>
<path d="M294 5899 c-4 -6 70 -89 167 -188 608 -617 986 -991 999 -990 8 0
337 139 730 308 481 206 715 312 715 321 0 12 -283 74 -1270 281 -698 146
-1284 268 -1302 272 -19 4 -35 2 -39 -4z"/>
<path d="M4329 5053 c-9 -10 -23 -31 -33 -46 -16 -26 -16 -29 2 -55 10 -15
632 -922 1382 -2017 750 -1094 1371 -1999 1382 -2010 18 -19 19 -19 108 70
l89 90 236 1465 c129 806 237 1472 240 1480 3 10 -13 24 -53 45 -86 44 -171
134 -220 234 -23 46 -42 90 -42 97 0 8 -10 19 -22 24 -13 5 -698 149 -1523
320 -825 171 -1507 313 -1516 316 -9 2 -22 -4 -30 -13z"/>
<path d="M2413 4727 c-359 -155 -653 -286 -653 -292 0 -6 147 -156 326 -335
l326 -325 16 24 c9 14 175 272 368 574 l351 550 -30 44 c-17 23 -36 43 -41 42
-6 0 -305 -127 -663 -282z"/>
<path d="M3917 4713 c-131 -45 -283 -49 -419 -12 -32 8 -44 8 -54 -3 -23 -24
-764 -1190 -764 -1203 0 -14 3488 -3498 3498 -3493 4 2 146 143 315 315 234
235 307 315 300 326 -29 53 -2790 4087 -2798 4089 -5 2 -41 -7 -78 -19z"/>
<path d="M8313 4160 c-34 -32 -91 -75 -127 -95 -36 -20 -66 -37 -66 -38 0 -1
-90 -553 -199 -1227 -140 -867 -195 -1229 -188 -1238 8 -10 281 257 1166 1142
855 855 1153 1158 1144 1167 -9 9 -1624 350 -1656 349 -7 -1 -40 -27 -74 -60z"/>
</g>
</svg>
